{
    "asset" : {
        "generator" : "Khronos glTF Blender I/O v1.8.19",
        "version" : "2.0"
    },
    "scene" : 0,
    "scenes" : [
        {
            "name" : "Scene",
            "nodes" : [
                0,
                1,
                2,
                3,
                4,
                5,
                6,
                7
            ]
        }
    ],
    "nodes" : [
        {
            "mesh" : 0,
            "name" : "\u7bb1\u4f53.001",
            "translation" : [
                0.5652132034301758,
                1.4450479745864868,
                0
            ]
        },
        {
            "mesh" : 1,
            "name" : "\u7a7a\u8c03\u7ba1.001",
            "translation" : [
                1.5576543807983398,
                3.0598902702331543,
                0.3749244213104248
            ]
        },
        {
            "mesh" : 2,
            "name" : "\u7a7a\u8c03.002",
            "rotation" : [
                0,
                -1,
                0,
                7.549790126404332e-08
            ],
            "translation" : [
                0.9968404769897461,
                3.0619144439697266,
                0
            ]
        },
        {
            "mesh" : 3,
            "name" : "\u7a7a\u8c03.003",
            "translation" : [
                -2.6606225967407227,
                3.0619144439697266,
                0
            ]
        },
        {
            "mesh" : 4,
            "name" : "\u6db2\u51b7\u7ba1.002",
            "translation" : [
                -5.897479057312012,
                -0.04347419738769531,
                1.501295804977417
            ]
        },
        {
            "mesh" : 4,
            "name" : "\u6db2\u51b7\u7ba1.003",
            "translation" : [
                -6.7072248458862305,
                -0.04347419738769531,
                1.501295804977417
            ]
        },
        {
            "mesh" : 5,
            "name" : "\u6db2\u51b7.002",
            "scale" : [
                1.0854731798171997,
                0.03999998793005943,
                1.095752239227295
            ],
            "translation" : [
                -6.321209907531738,
                2.5159010887145996,
                0
            ]
        },
        {
            "mesh" : 6,
            "name" : "\u6db2\u51b7.003",
            "translation" : [
                -6.3212080001831055,
                1.24504816532135,
                0
            ]
        }
    ],
    "materials" : [
        {
            "doubleSided" : true,
            "name" : "\u67dc\u4f53\u8d34\u56fe.001",
            "pbrMetallicRoughness" : {
                "baseColorTexture" : {
                    "index" : 0
                },
                "metallicFactor" : 0,
                "roughnessFactor" : 0.5
            }
        },
        {
            "doubleSided" : true,
            "name" : "\u6750\u8d28.003",
            "pbrMetallicRoughness" : {
                "baseColorFactor" : [
                    0.011087704449892044,
                    0.011087704449892044,
                    0.011087704449892044,
                    1
                ],
                "metallicFactor" : 0,
                "roughnessFactor" : 0.5
            }
        },
        {
            "doubleSided" : true,
            "name" : "\u6750\u8d28.004",
            "pbrMetallicRoughness" : {
                "baseColorTexture" : {
                    "index" : 1
                },
                "metallicFactor" : 0,
                "roughnessFactor" : 0.5
            }
        },
        {
            "doubleSided" : true,
            "name" : "\u6750\u8d28.005",
            "pbrMetallicRoughness" : {
                "baseColorTexture" : {
                    "index" : 2
                },
                "metallicFactor" : 0,
                "roughnessFactor" : 0.5
            }
        }
    ],
    "meshes" : [
        {
            "name" : "Cube",
            "primitives" : [
                {
                    "attributes" : {
                        "POSITION" : 0,
                        "NORMAL" : 1,
                        "TEXCOORD_0" : 2
                    },
                    "indices" : 3,
                    "material" : 0
                }
            ]
        },
        {
            "name" : "\u5e73\u9762.006",
            "primitives" : [
                {
                    "attributes" : {
                        "POSITION" : 4,
                        "NORMAL" : 5,
                        "TEXCOORD_0" : 6
                    },
                    "indices" : 7,
                    "material" : 1
                }
            ]
        },
        {
            "name" : "\u7acb\u65b9\u4f53.002",
            "primitives" : [
                {
                    "attributes" : {
                        "POSITION" : 8,
                        "NORMAL" : 9,
                        "TEXCOORD_0" : 10
                    },
                    "indices" : 11,
                    "material" : 2
                }
            ]
        },
        {
            "name" : "\u7acb\u65b9\u4f53.003",
            "primitives" : [
                {
                    "attributes" : {
                        "POSITION" : 12,
                        "NORMAL" : 13,
                        "TEXCOORD_0" : 14
                    },
                    "indices" : 11,
                    "material" : 2
                }
            ]
        },
        {
            "name" : "\u6db2\u51b7\u7ba1",
            "primitives" : [
                {
                    "attributes" : {
                        "POSITION" : 15,
                        "NORMAL" : 16,
                        "TEXCOORD_0" : 17
                    },
                    "indices" : 18
                }
            ]
        },
        {
            "name" : "Cube.004",
            "primitives" : [
                {
                    "attributes" : {
                        "POSITION" : 19,
                        "NORMAL" : 20,
                        "TEXCOORD_0" : 21
                    },
                    "indices" : 3
                }
            ]
        },
        {
            "name" : "Cube.005",
            "primitives" : [
                {
                    "attributes" : {
                        "POSITION" : 22,
                        "NORMAL" : 23,
                        "TEXCOORD_0" : 24
                    },
                    "indices" : 3,
                    "material" : 3
                }
            ]
        }
    ],
    "textures" : [
        {
            "sampler" : 0,
            "source" : 0
        },
        {
            "sampler" : 0,
            "source" : 1
        },
        {
            "sampler" : 0,
            "source" : 2
        }
    ],
    "images" : [
        {
            "bufferView" : 4,
            "mimeType" : "image/jpeg",
            "name" : "\u67dc\u4f53\u8d34\u56fe"
        },
        {
            "bufferView" : 13,
            "mimeType" : "image/png",
            "name" : "\u7a7a\u8c03"
        },
        {
            "bufferView" : 27,
            "mimeType" : "image/png",
            "name" : "\u6db2\u51b7\u67dc"
        }
    ],
    "accessors" : [
        {
            "bufferView" : 0,
            "componentType" : 5126,
            "count" : 24,
            "max" : [
                5.370280742645264,
                1.4500004053115845,
                1.6000003814697266
            ],
            "min" : [
                -5.370280742645264,
                -1.4500004053115845,
                -1.6000003814697266
            ],
            "type" : "VEC3"
        },
        {
            "bufferView" : 1,
            "componentType" : 5126,
            "count" : 24,
            "type" : "VEC3"
        },
        {
            "bufferView" : 2,
            "componentType" : 5126,
            "count" : 24,
            "type" : "VEC2"
        },
        {
            "bufferView" : 3,
            "componentType" : 5123,
            "count" : 36,
            "type" : "SCALAR"
        },
        {
            "bufferView" : 5,
            "componentType" : 5126,
            "count" : 2160,
            "max" : [
                3.229419231414795,
                0.1866593360900879,
                0.5192015171051025
            ],
            "min" : [
                -3.8919801712036133,
                -0.11962823569774628,
                -1.253629207611084
            ],
            "type" : "VEC3"
        },
        {
            "bufferView" : 6,
            "componentType" : 5126,
            "count" : 2160,
            "type" : "VEC3"
        },
        {
            "bufferView" : 7,
            "componentType" : 5126,
            "count" : 2160,
            "type" : "VEC2"
        },
        {
            "bufferView" : 8,
            "componentType" : 5123,
            "count" : 3240,
            "type" : "SCALAR"
        },
        {
            "bufferView" : 9,
            "componentType" : 5126,
            "count" : 24,
            "max" : [
                0.5457134246826172,
                0.20000004768371582,
                1.31473970413208
            ],
            "min" : [
                -0.5457134246826172,
                -0.20000004768371582,
                -1.31473970413208
            ],
            "type" : "VEC3"
        },
        {
            "bufferView" : 10,
            "componentType" : 5126,
            "count" : 24,
            "type" : "VEC3"
        },
        {
            "bufferView" : 11,
            "componentType" : 5126,
            "count" : 24,
            "type" : "VEC2"
        },
        {
            "bufferView" : 12,
            "componentType" : 5123,
            "count" : 36,
            "type" : "SCALAR"
        },
        {
            "bufferView" : 14,
            "componentType" : 5126,
            "count" : 24,
            "max" : [
                0.5457115173339844,
                0.20000004768371582,
                1.31473970413208
            ],
            "min" : [
                -0.54571533203125,
                -0.20000004768371582,
                -1.31473970413208
            ],
            "type" : "VEC3"
        },
        {
            "bufferView" : 15,
            "componentType" : 5126,
            "count" : 24,
            "type" : "VEC3"
        },
        {
            "bufferView" : 16,
            "componentType" : 5126,
            "count" : 24,
            "type" : "VEC2"
        },
        {
            "bufferView" : 17,
            "componentType" : 5126,
            "count" : 480,
            "max" : [
                0.06000000610947609,
                0.27378004789352417,
                0.35787397623062134
            ],
            "min" : [
                -0.06000000610947609,
                -0.7862197160720825,
                -1.2066893577575684
            ],
            "type" : "VEC3"
        },
        {
            "bufferView" : 18,
            "componentType" : 5126,
            "count" : 480,
            "type" : "VEC3"
        },
        {
            "bufferView" : 19,
            "componentType" : 5126,
            "count" : 480,
            "type" : "VEC2"
        },
        {
            "bufferView" : 20,
            "componentType" : 5123,
            "count" : 720,
            "type" : "SCALAR"
        },
        {
            "bufferView" : 21,
            "componentType" : 5126,
            "count" : 24,
            "max" : [
                0.7830686569213867,
                1.2500003576278687,
                1.1407688856124878
            ],
            "min" : [
                -0.7830686569213867,
                -1.2500003576278687,
                -1.1407688856124878
            ],
            "type" : "VEC3"
        },
        {
            "bufferView" : 22,
            "componentType" : 5126,
            "count" : 24,
            "type" : "VEC3"
        },
        {
            "bufferView" : 23,
            "componentType" : 5126,
            "count" : 24,
            "type" : "VEC2"
        },
        {
            "bufferView" : 24,
            "componentType" : 5126,
            "count" : 24,
            "max" : [
                0.7830677032470703,
                1.2500003576278687,
                1.1407688856124878
            ],
            "min" : [
                -0.7830696105957031,
                -1.2500003576278687,
                -1.1407688856124878
            ],
            "type" : "VEC3"
        },
        {
            "bufferView" : 25,
            "componentType" : 5126,
            "count" : 24,
            "type" : "VEC3"
        },
        {
            "bufferView" : 26,
            "componentType" : 5126,
            "count" : 24,
            "type" : "VEC2"
        }
    ],
    "bufferViews" : [
        {
            "buffer" : 0,
            "byteLength" : 288,
            "byteOffset" : 0
        },
        {
            "buffer" : 0,
            "byteLength" : 288,
            "byteOffset" : 288
        },
        {
            "buffer" : 0,
            "byteLength" : 192,
            "byteOffset" : 576
        },
        {
            "buffer" : 0,
            "byteLength" : 72,
            "byteOffset" : 768
        },
        {
            "buffer" : 0,
            "byteLength" : 89009,
            "byteOffset" : 840
        },
        {
            "buffer" : 0,
            "byteLength" : 25920,
            "byteOffset" : 89852
        },
        {
            "buffer" : 0,
            "byteLength" : 25920,
            "byteOffset" : 115772
        },
        {
            "buffer" : 0,
            "byteLength" : 17280,
            "byteOffset" : 141692
        },
        {
            "buffer" : 0,
            "byteLength" : 6480,
            "byteOffset" : 158972
        },
        {
            "buffer" : 0,
            "byteLength" : 288,
            "byteOffset" : 165452
        },
        {
            "buffer" : 0,
            "byteLength" : 288,
            "byteOffset" : 165740
        },
        {
            "buffer" : 0,
            "byteLength" : 192,
            "byteOffset" : 166028
        },
        {
            "buffer" : 0,
            "byteLength" : 72,
            "byteOffset" : 166220
        },
        {
            "buffer" : 0,
            "byteLength" : 109692,
            "byteOffset" : 166292
        },
        {
            "buffer" : 0,
            "byteLength" : 288,
            "byteOffset" : 275984
        },
        {
            "buffer" : 0,
            "byteLength" : 288,
            "byteOffset" : 276272
        },
        {
            "buffer" : 0,
            "byteLength" : 192,
            "byteOffset" : 276560
        },
        {
            "buffer" : 0,
            "byteLength" : 5760,
            "byteOffset" : 276752
        },
        {
            "buffer" : 0,
            "byteLength" : 5760,
            "byteOffset" : 282512
        },
        {
            "buffer" : 0,
            "byteLength" : 3840,
            "byteOffset" : 288272
        },
        {
            "buffer" : 0,
            "byteLength" : 1440,
            "byteOffset" : 292112
        },
        {
            "buffer" : 0,
            "byteLength" : 288,
            "byteOffset" : 293552
        },
        {
            "buffer" : 0,
            "byteLength" : 288,
            "byteOffset" : 293840
        },
        {
            "buffer" : 0,
            "byteLength" : 192,
            "byteOffset" : 294128
        },
        {
            "buffer" : 0,
            "byteLength" : 288,
            "byteOffset" : 294320
        },
        {
            "buffer" : 0,
            "byteLength" : 288,
            "byteOffset" : 294608
        },
        {
            "buffer" : 0,
            "byteLength" : 192,
            "byteOffset" : 294896
        },
        {
            "buffer" : 0,
            "byteLength" : 27363,
            "byteOffset" : 295088
        }
    ],
    "samplers" : [
        {
            "magFilter" : 9729,
            "minFilter" : 9987
        }
    ],
    "buffers" : [
        {
            "byteLength" : 322452,
            "uri" : "data:application/octet-stream;base64,"
        }
    ]
}
